<?xml version="1.0" encoding="UTF-8"?>
<svg version="1.1" xmlns="http://www.w3.org/2000/svg" width="512" height="512">
<path d="M0 0 C2.63444087 -0.00407028 5.26885646 -0.00930727 7.90328979 -0.01593018 C14.28726267 -0.02919929 20.67112913 -0.02642084 27.05510601 -0.01769225 C32.24633388 -0.01089083 37.43753214 -0.01000955 42.6287632 -0.0132637 C43.37026256 -0.0137234 44.11176192 -0.0141831 44.87573097 -0.01465673 C46.38247945 -0.01561599 47.88922793 -0.01658863 49.3959764 -0.0175745 C63.49001331 -0.02610793 77.58399146 -0.01632559 91.67801873 -0.0001734 C103.75266033 0.01323627 115.82721541 0.01089238 127.90185547 -0.00292969 C141.95338212 -0.01900739 156.00485745 -0.0252929 170.05639201 -0.0160929 C171.5563865 -0.01513733 173.056381 -0.01419421 174.5563755 -0.0132637 C175.2942435 -0.01280088 176.03211151 -0.01233805 176.79233914 -0.0118612 C181.97458054 -0.0092785 187.15678918 -0.01362654 192.3390255 -0.02070236 C199.3200043 -0.03002555 206.30081743 -0.02332778 213.28178024 -0.00601959 C215.83952247 -0.0020617 218.39727849 -0.00317679 220.95501518 -0.00980759 C224.45385163 -0.01804022 227.95216982 -0.00768023 231.45097351 0.00723267 C232.45604767 0.0005405 233.46112183 -0.00615166 234.49665278 -0.01304662 C247.36777352 0.09291336 260.61957187 4.11590977 269.8918457 13.38818359 C279.61552402 25.45727176 281.4550416 38.30528099 279.8918457 53.38818359 C278.49344781 59.82366779 275.88788459 65.14338256 271.8918457 70.38818359 C271.29114258 71.19384766 270.69043945 71.99951172 270.0715332 72.82958984 C262.89126056 81.25804609 251.46540371 85.55313224 240.6337266 86.60812092 C234.43430534 86.9636799 228.23189883 86.89010481 222.02514648 86.84228516 C219.95414248 86.84115475 217.88313687 86.84179431 215.81213379 86.84405518 C210.23035314 86.84519569 204.64892127 86.82179421 199.06722116 86.79375935 C193.21897591 86.76863461 187.37072132 86.766395 181.52243042 86.76165771 C170.46595515 86.74926035 159.40963942 86.71648277 148.35323417 86.67625976 C133.39994822 86.623049 118.44661818 86.60157039 103.49326134 86.57825089 C79.95933679 86.54071892 56.4257488 86.4610064 32.8918457 86.38818359 C32.8918457 117.40818359 32.8918457 148.42818359 32.8918457 180.38818359 C46.68481445 180.35337891 60.4777832 180.31857422 74.6887207 180.28271484 C83.42960781 180.26738531 92.17048516 180.2528191 100.91137695 180.24169922 C114.78364393 180.22390949 128.65585618 180.20301407 142.52807617 180.16186523 C152.63185902 180.13190898 162.73559739 180.1125958 172.83942342 180.10591811 C178.18642894 180.1020164 183.53330726 180.09288356 188.88027191 180.07099342 C193.91991998 180.05052988 198.95938926 180.04436966 203.99907494 180.04886055 C205.84203503 180.04803975 207.68500151 180.04213321 209.52792549 180.03056717 C225.94309519 179.93265823 239.63158758 181.50544477 252.2043457 193.13818359 C260.38761933 201.83394506 263.46608947 212.92332125 263.1340332 224.69287109 C261.99788364 237.33711619 257.86378276 247.48737403 248.0793457 255.82568359 C234.63682076 265.75528283 219.29018327 265.68347077 203.29345703 265.61523438 C201.42978929 265.61466938 199.5661211 265.61498855 197.70245361 265.61611938 C192.67223413 265.61669045 187.6421111 265.60497624 182.61191392 265.59097147 C177.34420152 265.57842282 172.07648663 265.57729036 166.8087616 265.57492065 C156.84659513 265.568718 146.88447285 265.55232368 136.92232579 265.53222167 C123.4512767 265.50563247 109.98021543 265.49488021 96.50914669 265.48321724 C75.30334664 265.46444218 54.09763979 265.42458839 32.8918457 265.38818359 C32.8918457 301.68818359 32.8918457 337.98818359 32.8918457 375.38818359 C47.5768457 375.36498047 62.2618457 375.34177734 77.3918457 375.31787109 C86.70695058 375.30764947 96.02205137 375.29793843 105.3371582 375.29052734 C120.11549269 375.27867507 134.89380431 375.264766 149.67211914 375.23730469 C160.43662662 375.21731151 171.20111549 375.20445313 181.96564102 375.2000066 C187.66038569 375.19740924 193.35507715 375.19134488 199.04980469 375.17672348 C204.42103122 375.16304575 209.79218315 375.15898136 215.16342545 375.16196823 C217.12402885 375.16142259 219.08463501 375.15750635 221.04522324 375.14977264 C261.4386114 374.99839011 261.4386114 374.99839011 275.7355957 388.99365234 C284.80638472 399.06682928 288.26974348 409.67904348 288.1027832 423.16943359 C287.33394769 434.90129398 282.78063936 445.61552599 274.1340332 453.72412109 C262.90927958 462.05468737 251.17196671 464.69667447 237.47715759 464.65560913 C235.79809109 464.6624058 235.79809109 464.6624058 234.08510405 464.66933978 C230.34998783 464.68195731 226.61501793 464.68036508 222.87988281 464.67871094 C220.19518497 464.68469793 217.5104984 464.69144781 214.82580566 464.69906616 C208.29845943 464.71563622 201.77114934 464.72117394 195.24378382 464.72229092 C189.93282235 464.72324352 184.62187272 464.72736442 179.31091499 464.73369217 C164.22731261 464.75129559 149.14373861 464.76053273 134.06012588 464.75903122 C133.2479943 464.75895131 132.43586272 464.7588714 131.59912109 464.75878906 C130.37942222 464.75866642 130.37942222 464.75866642 129.13508297 464.7585413 C115.97086728 464.7577292 102.80676622 464.77684994 89.64258366 464.8050658 C76.10014473 464.8338614 62.55776157 464.84760235 49.01529127 464.84587824 C41.42258425 464.84521652 33.82999734 464.85061233 26.23731804 464.87223434 C19.77001092 464.89053454 13.30287831 464.89472177 6.83555638 464.8812155 C3.54231357 464.87472926 0.24947059 464.87662508 -3.04375267 464.891922 C-22.7265668 464.97737959 -44.15369782 464.59461357 -59.5222168 450.20068359 C-71.88364621 436.0733357 -74.41817433 419.42068836 -74.37557983 401.32260132 C-74.37932162 399.80744502 -74.38392524 398.29229065 -74.38931048 396.77713931 C-74.40149075 392.63482109 -74.40128591 388.49258393 -74.39892173 384.35025191 C-74.39851229 379.87426634 -74.40956481 375.39830632 -74.41903687 370.92233276 C-74.43562091 362.16056467 -74.44114525 353.3988235 -74.44226162 344.63704102 C-74.4432134 337.51117313 -74.44733017 330.38531409 -74.45366287 323.25944901 C-74.47126878 303.03536615 -74.48050285 282.81130449 -74.47900192 262.58721392 C-74.47892201 261.49785715 -74.4788421 260.40850039 -74.47875977 259.28613281 C-74.478678 258.19543856 -74.47859624 257.1047443 -74.478512 255.98099871 C-74.47769946 238.31292351 -74.49683097 220.64493363 -74.5250365 202.9768831 C-74.5538006 184.81492388 -74.56757483 166.65300622 -74.56584895 148.49102366 C-74.56518623 138.3027496 -74.57062657 128.11456497 -74.59220505 117.92631149 C-74.61046337 109.25036482 -74.61472615 100.57454811 -74.6011862 91.89859049 C-74.59467976 87.47731606 -74.59445468 83.05629064 -74.6118927 78.63504028 C-74.62773228 74.57708993 -74.62465024 70.51958376 -74.60732444 66.46164353 C-74.60427826 65.00406106 -74.60779555 63.54644452 -74.61904459 62.08890228 C-74.74083059 45.17044899 -71.37610172 27.90467546 -59.6081543 15.07568359 C-42.71797834 -0.65139641 -21.61491218 -0.05618114 0 0 Z " fill="#2EBAF3" transform="translate(154.108154296875,31.61181640625)"/>
<path d="M0 0 C2.63444087 -0.00407028 5.26885646 -0.00930727 7.90328979 -0.01593018 C14.28726267 -0.02919929 20.67112913 -0.02642084 27.05510601 -0.01769225 C32.24633388 -0.01089083 37.43753214 -0.01000955 42.6287632 -0.0132637 C43.37026256 -0.0137234 44.11176192 -0.0141831 44.87573097 -0.01465673 C46.38247945 -0.01561599 47.88922793 -0.01658863 49.3959764 -0.0175745 C63.49001331 -0.02610793 77.58399146 -0.01632559 91.67801873 -0.0001734 C103.75266033 0.01323627 115.82721541 0.01089238 127.90185547 -0.00292969 C141.95338212 -0.01900739 156.00485745 -0.0252929 170.05639201 -0.0160929 C171.5563865 -0.01513733 173.056381 -0.01419421 174.5563755 -0.0132637 C175.2942435 -0.01280088 176.03211151 -0.01233805 176.79233914 -0.0118612 C181.97458054 -0.0092785 187.15678918 -0.01362654 192.3390255 -0.02070236 C199.3200043 -0.03002555 206.30081743 -0.02332778 213.28178024 -0.00601959 C215.83952247 -0.0020617 218.39727849 -0.00317679 220.95501518 -0.00980759 C224.45385163 -0.01804022 227.95216982 -0.00768023 231.45097351 0.00723267 C232.45604767 0.0005405 233.46112183 -0.00615166 234.49665278 -0.01304662 C247.36777352 0.09291336 260.61957187 4.11590977 269.8918457 13.38818359 C279.61552402 25.45727176 281.4550416 38.30528099 279.8918457 53.38818359 C278.49344781 59.82366779 275.88788459 65.14338256 271.8918457 70.38818359 C271.29114258 71.19384766 270.69043945 71.99951172 270.0715332 72.82958984 C262.89126056 81.25804609 251.46540371 85.55313224 240.6337266 86.60812092 C234.43430534 86.9636799 228.23189883 86.89010481 222.02514648 86.84228516 C219.95414248 86.84115475 217.88313687 86.84179431 215.81213379 86.84405518 C210.23035314 86.84519569 204.64892127 86.82179421 199.06722116 86.79375935 C193.21897591 86.76863461 187.37072132 86.766395 181.52243042 86.76165771 C170.46595515 86.74926035 159.40963942 86.71648277 148.35323417 86.67625976 C133.39994822 86.623049 118.44661818 86.60157039 103.49326134 86.57825089 C79.95933679 86.54071892 56.4257488 86.4610064 32.8918457 86.38818359 C32.8918457 117.40818359 32.8918457 148.42818359 32.8918457 180.38818359 C46.68481445 180.35337891 60.4777832 180.31857422 74.6887207 180.28271484 C83.42960781 180.26738531 92.17048516 180.2528191 100.91137695 180.24169922 C114.78364393 180.22390949 128.65585618 180.20301407 142.52807617 180.16186523 C152.63185902 180.13190898 162.73559739 180.1125958 172.83942342 180.10591811 C178.18642894 180.1020164 183.53330726 180.09288356 188.88027191 180.07099342 C193.91991998 180.05052988 198.95938926 180.04436966 203.99907494 180.04886055 C205.84203503 180.04803975 207.68500151 180.04213321 209.52792549 180.03056717 C225.94309519 179.93265823 239.63158758 181.50544477 252.2043457 193.13818359 C260.38761933 201.83394506 263.46608947 212.92332125 263.1340332 224.69287109 C261.99788364 237.33711619 257.86378276 247.48737403 248.0793457 255.82568359 C234.63682076 265.75528283 219.29018327 265.68347077 203.29345703 265.61523438 C201.42978929 265.61466938 199.5661211 265.61498855 197.70245361 265.61611938 C192.67223413 265.61669045 187.6421111 265.60497624 182.61191392 265.59097147 C177.34420152 265.57842282 172.07648663 265.57729036 166.8087616 265.57492065 C156.84659513 265.568718 146.88447285 265.55232368 136.92232579 265.53222167 C123.4512767 265.50563247 109.98021543 265.49488021 96.50914669 265.48321724 C75.30334664 265.46444218 54.09763979 265.42458839 32.8918457 265.38818359 C32.8918457 301.68818359 32.8918457 337.98818359 32.8918457 375.38818359 C47.5768457 375.36498047 62.2618457 375.34177734 77.3918457 375.31787109 C86.70695058 375.30764947 96.02205137 375.29793843 105.3371582 375.29052734 C120.11549269 375.27867507 134.89380431 375.264766 149.67211914 375.23730469 C160.43662662 375.21731151 171.20111549 375.20445313 181.96564102 375.2000066 C187.66038569 375.19740924 193.35507715 375.19134488 199.04980469 375.17672348 C204.42103122 375.16304575 209.79218315 375.15898136 215.16342545 375.16196823 C217.12402885 375.16142259 219.08463501 375.15750635 221.04522324 375.14977264 C261.4386114 374.99839011 261.4386114 374.99839011 275.7355957 388.99365234 C284.80638472 399.06682928 288.26974348 409.67904348 288.1027832 423.16943359 C287.33394769 434.90129398 282.78063936 445.61552599 274.1340332 453.72412109 C262.90927958 462.05468737 251.17196671 464.69667447 237.47715759 464.65560913 C235.79809109 464.6624058 235.79809109 464.6624058 234.08510405 464.66933978 C230.34998783 464.68195731 226.61501793 464.68036508 222.87988281 464.67871094 C220.19518497 464.68469793 217.5104984 464.69144781 214.82580566 464.69906616 C208.29845943 464.71563622 201.77114934 464.72117394 195.24378382 464.72229092 C189.93282235 464.72324352 184.62187272 464.72736442 179.31091499 464.73369217 C164.22731261 464.75129559 149.14373861 464.76053273 134.06012588 464.75903122 C133.2479943 464.75895131 132.43586272 464.7588714 131.59912109 464.75878906 C130.37942222 464.75866642 130.37942222 464.75866642 129.13508297 464.7585413 C115.97086728 464.7577292 102.80676622 464.77684994 89.64258366 464.8050658 C76.10014473 464.8338614 62.55776157 464.84760235 49.01529127 464.84587824 C41.42258425 464.84521652 33.82999734 464.85061233 26.23731804 464.87223434 C19.77001092 464.89053454 13.30287831 464.89472177 6.83555638 464.8812155 C3.54231357 464.87472926 0.24947059 464.87662508 -3.04375267 464.891922 C-22.7265668 464.97737959 -44.15369782 464.59461357 -59.5222168 450.20068359 C-71.88364621 436.0733357 -74.41817433 419.42068836 -74.37557983 401.32260132 C-74.37932162 399.80744502 -74.38392524 398.29229065 -74.38931048 396.77713931 C-74.40149075 392.63482109 -74.40128591 388.49258393 -74.39892173 384.35025191 C-74.39851229 379.87426634 -74.40956481 375.39830632 -74.41903687 370.92233276 C-74.43562091 362.16056467 -74.44114525 353.3988235 -74.44226162 344.63704102 C-74.4432134 337.51117313 -74.44733017 330.38531409 -74.45366287 323.25944901 C-74.47126878 303.03536615 -74.48050285 282.81130449 -74.47900192 262.58721392 C-74.47892201 261.49785715 -74.4788421 260.40850039 -74.47875977 259.28613281 C-74.478678 258.19543856 -74.47859624 257.1047443 -74.478512 255.98099871 C-74.47769946 238.31292351 -74.49683097 220.64493363 -74.5250365 202.9768831 C-74.5538006 184.81492388 -74.56757483 166.65300622 -74.56584895 148.49102366 C-74.56518623 138.3027496 -74.57062657 128.11456497 -74.59220505 117.92631149 C-74.61046337 109.25036482 -74.61472615 100.57454811 -74.6011862 91.89859049 C-74.59467976 87.47731606 -74.59445468 83.05629064 -74.6118927 78.63504028 C-74.62773228 74.57708993 -74.62465024 70.51958376 -74.60732444 66.46164353 C-74.60427826 65.00406106 -74.60779555 63.54644452 -74.61904459 62.08890228 C-74.74083059 45.17044899 -71.37610172 27.90467546 -59.6081543 15.07568359 C-42.71797834 -0.65139641 -21.61491218 -0.05618114 0 0 Z M-48.1081543 27.38818359 C-58.34357255 39.71721013 -58.25936152 53.69737414 -58.24859619 69.01875305 C-58.25118359 70.49877235 -58.25419779 71.97879095 -58.25759959 73.4588086 C-58.26562838 77.50847563 -58.26745685 81.55812489 -58.26819706 85.60779893 C-58.27005475 89.98214906 -58.27760551 94.35649012 -58.28433228 98.73083496 C-58.29788531 108.28658685 -58.30393517 117.84233452 -58.30834293 127.39809442 C-58.31110966 133.36811617 -58.31534771 139.33813631 -58.31984711 145.30815697 C-58.33203425 161.84843119 -58.34233567 178.38870412 -58.3457222 194.92898273 C-58.34594176 195.98652034 -58.34616133 197.04405795 -58.34638755 198.13364215 C-58.34660583 199.19365006 -58.34682411 200.25365798 -58.347049 201.34578735 C-58.34749246 203.49362711 -58.34793902 205.64146688 -58.34838867 207.78930664 C-58.3486101 208.8547001 -58.34883153 209.92009357 -58.34905967 211.01777168 C-58.3530085 228.28443764 -58.37046761 245.55106143 -58.39374819 262.81771109 C-58.41747546 280.55925033 -58.42992462 298.30076841 -58.43109012 316.04232377 C-58.43200593 325.9979639 -58.43773506 335.95354901 -58.45590973 345.90917397 C-58.47132904 354.38504983 -58.47642025 362.86085366 -58.46817163 371.33674089 C-58.46427205 375.658238 -58.46516094 379.97959011 -58.47922897 384.30106926 C-58.49200888 388.26317806 -58.49073477 392.2250335 -58.47863826 396.18714216 C-58.47668836 397.6144013 -58.47972675 399.04167866 -58.48848262 400.46891228 C-58.56228367 413.32041114 -57.17395474 427.33286186 -48.32299805 437.42333984 C-38.29554435 446.81286409 -26.10373346 448.69813405 -12.84291077 448.64888 C-11.73971746 448.65270555 -10.63652416 448.6565311 -9.49990076 448.66047257 C-5.81987172 448.67075433 -2.14000011 448.66681957 1.54003906 448.6628418 C4.18521131 448.66719091 6.8303722 448.67231061 9.47554016 448.67832947 C15.90462392 448.69104948 22.33366587 448.69287357 28.7627601 448.6905292 C33.99034395 448.68874303 39.21791516 448.6905021 44.44549751 448.69475365 C45.19073841 448.69534884 45.93597931 448.69594402 46.70380326 448.69655725 C48.21796214 448.69776905 49.73212102 448.69898319 51.2462799 448.70019963 C65.43133567 448.71106456 79.61636765 448.70891751 93.80142475 448.70281478 C106.76597899 448.69764533 119.7304581 448.70890365 132.69499748 448.727913 C146.02270406 448.74730434 159.35037511 448.75554521 172.67809588 448.75178975 C180.15433352 448.74987983 187.63050722 448.75234496 195.10673332 448.76650429 C201.47062095 448.77843551 207.83440524 448.77980343 214.19829433 448.76771412 C217.44212519 448.76183787 220.68572884 448.76232818 223.92955399 448.77271652 C227.45308301 448.78318555 230.97610746 448.77508141 234.49961853 448.7624054 C235.51490708 448.76977968 236.53019563 448.77715397 237.57625049 448.78475171 C247.82683809 448.7073896 257.07823312 446.2771083 264.8918457 439.38818359 C271.39428832 431.33384537 271.50450285 423.49702653 270.8918457 413.38818359 C269.74542284 407.2965977 266.50110062 402.47720658 261.8918457 398.38818359 C254.11317517 393.21850814 245.57829061 392.08629965 236.45281982 392.1366272 C235.53409096 392.13365706 234.6153621 392.13068692 233.66879296 392.12762678 C230.60733721 392.12002181 227.54607529 392.12646628 224.48461914 392.1328125 C222.28305939 392.13006109 220.08150064 392.12638027 217.87994385 392.12184143 C213.14807544 392.11374335 208.41625424 392.11155741 203.68437958 392.1137886 C196.20550175 392.11662399 188.72671819 392.1022629 181.24786377 392.08480835 C170.76689118 392.06163643 160.285922 392.04250577 149.80493164 392.02978516 C149.14060719 392.02897479 148.47628273 392.02816442 147.79182723 392.02732949 C138.35256973 392.01609449 128.91331813 392.01082321 119.47405484 392.00794236 C118.80851762 392.00773838 118.1429804 392.00753439 117.45727539 392.00732422 C116.46018998 392.00702431 116.46018998 392.00702431 115.44296142 392.00671835 C104.36400564 392.00298735 93.28513153 391.98368787 82.20621896 391.95222986 C74.76761385 391.93197379 67.32928421 391.92966558 59.89066267 391.94051003 C55.2709915 391.94311016 50.65148209 391.92914817 46.03185272 391.910429 C43.88560576 391.90509022 41.73932931 391.90663238 39.59309387 391.9154644 C36.66931839 391.92652854 33.74664457 391.91322064 30.82293701 391.89370728 C29.96847292 391.90283193 29.11400882 391.91195659 28.23365188 391.92135775 C24.68417197 391.87507338 22.35427275 391.69651721 19.36497784 389.70333767 C17.55564619 386.85981709 17.39135754 385.20094925 17.39064026 381.8401947 C17.37588905 380.14720497 17.37588905 380.14720497 17.36083984 378.42001343 C17.37050781 377.1861087 17.38017578 375.95220398 17.39013672 374.6809082 C17.38203224 372.72679268 17.38203224 372.72679268 17.37376404 370.73320007 C17.35980417 367.16293198 17.37098183 363.5931455 17.38747525 360.02290416 C17.40132504 356.28736539 17.39486587 352.55185461 17.39134216 348.81629944 C17.38864031 342.54420202 17.40211453 336.27229601 17.42529297 330.00024414 C17.45191427 322.74628903 17.45364611 315.49265371 17.4419046 308.23866647 C17.43113091 301.26221936 17.43730988 294.28588806 17.45145988 287.30945015 C17.45722211 284.33939442 17.45713521 281.36942337 17.45239449 278.39936638 C17.44674239 274.25475477 17.46592877 270.11062214 17.48779297 265.96606445 C17.48329132 264.7301355 17.47878967 263.49420654 17.47415161 262.2208252 C17.48405624 261.0949852 17.49396088 259.9691452 17.50416565 258.80918884 C17.50659554 257.82898742 17.50902544 256.84878599 17.51152897 255.83888149 C17.95629628 252.97287479 18.61991661 252.12492934 20.8918457 250.38818359 C23.99800012 248.83510639 27.28644518 249.24541917 30.69580078 249.25015259 C31.511248 249.24733131 32.32669521 249.24451003 33.16685295 249.24160326 C35.91503709 249.23323221 38.66318108 249.23191684 41.41137695 249.23046875 C43.37571832 249.2258022 45.34005861 249.2206589 47.30439758 249.21507263 C51.54360859 249.20377573 55.7828125 249.19534908 60.02203369 249.1889534 C66.72915271 249.17828546 73.43622105 249.15804222 80.14331055 249.13583374 C99.2191332 249.07387417 118.29495352 249.01994028 137.37084961 248.98681641 C147.89950762 248.96845367 158.42808138 248.93949357 168.95667744 248.8988117 C174.5282381 248.87776311 180.09969265 248.86228752 185.67129517 248.86000443 C190.9178479 248.85785218 196.16418002 248.84192383 201.41066551 248.8156147 C203.33184784 248.80844122 205.25305695 248.80631123 207.17424965 248.80971718 C225.10516217 249.11149099 225.10516217 249.11149099 240.1965332 240.45068359 C245.76600787 233.67491717 246.55865901 226.22453418 246.27075195 217.66162109 C245.54331944 211.37720411 243.23704028 207.40809632 238.7043457 203.07568359 C231.01213559 197.00114857 221.14898181 196.23478959 211.6803894 196.25688171 C210.86954175 196.254766 210.0586941 196.25265029 209.2232753 196.25047046 C206.51496605 196.24449419 203.8067037 196.2454689 201.09838867 196.24633789 C199.15327882 196.24330495 197.20816968 196.23978313 195.26306152 196.23580933 C191.07901811 196.22793251 186.89498318 196.2227801 182.71093369 196.21951866 C176.09755601 196.21360311 169.48423197 196.19705932 162.87088013 196.17817688 C160.60626796 196.17184003 158.34165576 196.1655144 156.07704353 196.15919971 C154.94317404 196.1560339 153.80930455 196.15286809 152.64107537 196.14960635 C137.24697299 196.10752397 121.85289636 196.07453012 106.45874023 196.06225586 C96.06999429 196.05388754 85.68138192 196.03144685 75.29270279 195.99290019 C69.79513693 195.97310639 64.29777088 195.96074619 58.80016708 195.96573448 C53.63395997 195.97036548 48.46813249 195.9566606 43.30200195 195.92872238 C41.4040972 195.92178582 39.50615339 195.92171038 37.60824966 195.92892265 C35.02148848 195.93776176 32.43599277 195.92219883 29.84933472 195.9004364 C29.09467104 195.90887894 28.34000736 195.91732148 27.56247509 195.92601985 C24.19749502 195.87350259 22.21255776 195.61264107 19.42624855 193.66258049 C17.63900411 191.01340448 17.38950602 189.65832731 17.38391113 186.48558044 C17.37263184 185.49996124 17.36135254 184.51434204 17.34973145 183.49885559 C17.35782837 182.42391342 17.36592529 181.34897125 17.37426758 180.24145508 C17.3672583 179.10452209 17.36024902 177.96758911 17.35302734 176.79620361 C17.3354048 173.03364731 17.34708525 169.27184145 17.3605957 165.50927734 C17.35790222 162.89901078 17.35402101 160.28874518 17.34899902 157.67848206 C17.34172461 152.20671432 17.35130576 146.73516266 17.37036133 141.26342773 C17.39214087 134.93642934 17.38507056 128.60994631 17.36305571 122.28296036 C17.34272364 116.19602264 17.34486607 110.10931356 17.35658264 104.02235603 C17.35925635 101.43191519 17.35595768 98.84146124 17.34666443 96.25103569 C17.33653991 92.63550505 17.35194361 89.02097353 17.37426758 85.40551758 C17.36617065 84.32855118 17.35807373 83.25158478 17.34973145 82.14198303 C17.36665039 80.66778397 17.36665039 80.66778397 17.38391113 79.1638031 C17.38541924 78.30896552 17.38692734 77.45412794 17.38848114 76.57338619 C17.8918457 74.38818359 17.8918457 74.38818359 19.38759422 72.6137867 C23.01939449 70.83635112 26.51059962 70.97286678 30.46780396 71.00291443 C31.77929265 70.99506089 31.77929265 70.99506089 33.11727607 70.98704869 C36.05285163 70.97305793 38.98798941 70.98039623 41.92358398 70.98754883 C44.02615246 70.98180777 46.12871764 70.9747256 48.23127747 70.96640015 C52.76296161 70.95126931 57.29452781 70.94551434 61.82623672 70.94692802 C68.99562389 70.94895952 76.16485233 70.92940776 83.334198 70.90675354 C97.26699444 70.86573607 111.19977853 70.8471705 125.13262177 70.83058167 C142.8456322 70.80824526 160.55860598 70.77462382 178.27155674 70.72338253 C185.39397865 70.70348866 192.51631792 70.69388265 199.63876653 70.69243038 C204.07840982 70.68967312 208.51800781 70.67882722 212.95763206 70.66592026 C215.01105388 70.661653 217.06448607 70.66077216 219.11791039 70.6635952 C221.93003933 70.66701664 224.74188456 70.65816609 227.5539856 70.64646912 C228.35868259 70.65045021 229.16337958 70.6544313 229.99246132 70.65853304 C239.35124346 70.5899591 249.38739681 69.29350879 256.61450195 62.85302734 C263.01278212 55.9516883 264.54994709 48.94542267 264.30200195 39.64208984 C263.47208963 33.05811875 260.57092464 27.69226253 255.8918457 23.01318359 C243.6405535 14.19483138 228.0836123 15.83841652 213.78344727 15.91821289 C211.2444398 15.91770351 208.70543218 15.91544408 206.16642761 15.91157532 C200.01218648 15.90673445 193.85822368 15.92025827 187.70402774 15.94230094 C180.52717317 15.96711012 173.35035883 15.96991051 166.17346773 15.9717047 C153.36518906 15.97557233 140.55701193 15.99797972 127.7487793 16.03149414 C115.33699112 16.06394439 102.9252565 16.08518004 90.51342773 16.09301758 C89.365736 16.09374581 89.365736 16.09374581 88.19485858 16.09448876 C85.11879277 16.09641776 82.04272695 16.09832989 78.96666111 16.10020487 C67.11134441 16.1077463 55.25603642 16.12336828 43.40073045 16.14070147 C39.8257926 16.14592787 36.25085493 16.15086132 32.67591572 16.15506339 C24.52724574 16.16475872 16.3786213 16.17938737 8.22997475 16.20190239 C5.76330991 16.20801045 3.29664035 16.21246857 0.82996941 16.21514511 C-2.54028449 16.21914468 -5.91046607 16.22928014 -9.28070068 16.24101257 C-10.25337316 16.24082821 -11.22604564 16.24064385 -12.22819304 16.2404539 C-25.34472222 16.30456016 -38.3041119 17.71314175 -48.1081543 27.38818359 Z " fill="#092933" transform="translate(154.108154296875,31.61181640625)"/>
<path d="M0 0 C0.66 0 1.32 0 2 0 C2.2475 1.134375 2.495 2.26875 2.75 3.4375 C4.87222523 11.82251576 8.04473896 19.97902945 15.671875 24.62890625 C25.54761949 29.82996458 34.19407151 31.30181754 45.26524353 31.26069641 C46.36843683 31.26452196 47.47163014 31.26834751 48.60825354 31.27228898 C52.28828258 31.28257074 55.96815419 31.27863597 59.64819336 31.2746582 C62.29336561 31.27900731 64.9385265 31.28412701 67.58369446 31.29014587 C74.01277822 31.30286588 80.44182016 31.30468998 86.87091439 31.30234561 C92.09849825 31.30055943 97.32606946 31.3023185 102.55365181 31.30657005 C103.29889271 31.30716524 104.0441336 31.30776043 104.81195756 31.30837366 C106.32611644 31.30958546 107.84027532 31.31079959 109.3544342 31.31201603 C123.53948997 31.32288096 137.72452194 31.32073391 151.90957905 31.31463119 C164.87413329 31.30946174 177.8386124 31.32072006 190.80315178 31.33972941 C204.13085835 31.35912074 217.4585294 31.36736161 230.78625017 31.36360615 C238.26248782 31.36169623 245.73866151 31.36416137 253.21488762 31.37832069 C259.57877525 31.39025192 265.94255954 31.39161984 272.30644863 31.37953053 C275.55027949 31.37365428 278.79388314 31.37414459 282.03770828 31.38453293 C285.56123731 31.39500195 289.08426176 31.38689781 292.60777283 31.3742218 C294.13070565 31.38528323 294.13070565 31.38528323 295.68440479 31.39656812 C305.79067566 31.32029518 315.40077694 29.00085904 323 22 C325.00603986 19.13155048 326.5856962 16.19817443 328 13 C328.33 13 328.66 13 329 13 C329.71357457 31.81722564 329.71357457 31.81722564 322.78515625 39.55078125 C316.02367612 45.03986031 307.86101268 48.11813133 299.20159054 48.13142776 C298.25851888 48.13526891 297.31544721 48.13911005 296.34379762 48.1430676 C295.31599123 48.14220112 294.28818483 48.14133463 293.22923279 48.14044189 C292.13086832 48.14341302 291.03250384 48.14638414 289.9008556 48.1494453 C286.21311155 48.15813052 282.52539996 48.15964041 278.83764648 48.16113281 C276.19631294 48.16576117 273.55498234 48.17076537 270.91365051 48.17617798 C263.73155342 48.18974853 256.54946193 48.19578432 249.36735415 48.20018864 C244.87947964 48.20295381 240.39160727 48.20719173 235.90373421 48.21169281 C223.46922535 48.22388493 211.03471822 48.23418363 198.60020351 48.2375679 C197.40686248 48.23789725 197.40686248 48.23789725 196.18941355 48.23823325 C194.99326863 48.23856067 194.99326863 48.23856067 193.77295917 48.2388947 C192.15715182 48.23933816 190.54134446 48.23978472 188.92553711 48.24023438 C188.12404635 48.2404558 187.3225556 48.24067723 186.49677724 48.24090537 C173.52039079 48.2448503 160.54406059 48.26229522 147.56769585 48.2855939 C134.23333105 48.30934129 120.89899444 48.32177133 107.56460816 48.32293582 C100.08265211 48.3238508 92.60076934 48.32955811 85.11883354 48.34775543 C78.74539775 48.36320237 72.37205787 48.36825001 65.99860691 48.36001733 C62.7505005 48.35612668 59.50262609 48.3586146 56.25453568 48.37107468 C52.72274394 48.38382488 49.1914416 48.37790015 45.65965271 48.36749268 C44.14136569 48.37957728 44.14136569 48.37957728 42.59240621 48.39190602 C30.42518227 48.30850027 19.65472705 45.40978243 10.22265625 37.51171875 C2.30414531 29.39171898 -0.17419117 17.07073474 -0.0625 6.125 C-0.05347656 4.97257812 -0.04445313 3.82015625 -0.03515625 2.6328125 C-0.02355469 1.76398438 -0.01195313 0.89515625 0 0 Z " fill="#2E9DC3" transform="translate(96,432)"/>
<path d="M0 0 C0.97941559 -0.00379669 1.95883118 -0.00759338 2.96792603 -0.01150513 C6.20086836 -0.01890624 9.43290921 0.00246486 12.66577148 0.02490234 C14.91348668 0.02728695 17.16120389 0.02819206 19.40892029 0.02767944 C24.11730443 0.03080662 28.8253839 0.04736709 33.53369141 0.07421875 C39.57207969 0.10821777 45.61013351 0.1158467 51.6486063 0.11432838 C56.28882547 0.11487193 60.92897137 0.12583626 65.56916618 0.14033127 C67.79593285 0.14669968 70.02270783 0.15063826 72.24948311 0.15211868 C75.35917463 0.15645005 78.46850991 0.17394729 81.578125 0.1953125 C82.96140739 0.19395294 82.96140739 0.19395294 84.37263489 0.19256592 C85.64478851 0.20536087 85.64478851 0.20536087 86.94264221 0.21841431 C88.04458341 0.22344184 88.04458341 0.22344184 89.16878605 0.22857094 C91.59806389 0.53261062 93.15550104 1.18175507 95.22436523 2.48583984 C97.22436523 5.48583984 97.22436523 5.48583984 97.03686523 8.98583984 C96.25277364 12.36346519 95.95611544 13.51897969 93.22436523 15.48583984 C90.95716323 16.61944085 89.70091479 16.62069004 87.18315125 16.63973999 C86.33779816 16.64834045 85.49244507 16.65694092 84.62147522 16.665802 C83.227407 16.67219193 83.227407 16.67219193 81.80517578 16.67871094 C80.82780457 16.68688843 79.85043335 16.69506592 78.84344482 16.70349121 C75.59933084 16.72836517 72.35526064 16.74486569 69.11108398 16.75927734 C68.00487009 16.76460102 66.8986562 16.7699247 65.75892067 16.7754097 C59.90471718 16.80214898 54.05053507 16.8215221 48.19628906 16.8359375 C42.14317367 16.85259428 36.09060178 16.89737898 30.03769207 16.94830894 C25.38887389 16.98192893 20.74018559 16.99350918 16.0912571 16.99916458 C13.85968684 17.00589071 11.62812553 17.02114788 9.3966732 17.04505539 C6.27457465 17.07659859 3.15395369 17.07675973 0.03173828 17.06933594 C-0.89156784 17.08574127 -1.81487396 17.10214661 -2.76615906 17.11904907 C-7.23915709 17.07546978 -9.17663323 16.93672564 -12.84953308 14.17202759 C-14.77563477 11.48583984 -14.77563477 11.48583984 -15.40063477 7.92333984 C-14.77563477 4.48583984 -14.77563477 4.48583984 -12.84754944 2.30136108 C-8.52241655 -0.25482015 -4.93803942 -0.06031391 0 0 Z " fill="#FEFEFE" transform="translate(232.775634765625,55.51416015625)"/>
<path d="M0 0 C0.94552734 0.00128906 1.89105469 0.00257812 2.86523438 0.00390625 C10.8886395 0.10597077 10.8886395 0.10597077 14.4375 2.375 C16.4375 5.375 16.4375 5.375 16.25 8.875 C15.4659084 12.25262534 15.16925021 13.40813985 12.4375 15.375 C8.69386763 17.24681618 4.24557994 16.68928147 0.125 16.75 C-0.82568359 16.78738281 -1.77636719 16.82476562 -2.75585938 16.86328125 C-7.47248558 16.92260988 -9.79908583 16.93636198 -13.69140625 14.07421875 C-15.5625 11.375 -15.5625 11.375 -16.1875 7.8125 C-15.5625 4.375 -15.5625 4.375 -13.68359375 2.18359375 C-9.1449153 -0.44645396 -5.14850795 -0.13391054 0 0 Z " fill="#FBFDFE" transform="translate(185.5625,55.625)"/>
</svg>
